<svg xmlns="http://www.w3.org/2000/svg"><symbol id="icon" viewBox="0 0 52 52"><title xmlns="http://www.w3.org/2000/svg" fill="currentColor">mobile-phone</title><path xmlns="http://www.w3.org/2000/svg" d="M30,39.5a.5.5,0,0,1-.5.5H6.5a.5.5,0,0,1-.5-.5v-29a.5.5,0,0,1,.5-.5H22.94a14,14,0,0,1,6.13-7.15A6,6,0,0,0,26,2H10A6,6,0,0,0,4,8V44a6,6,0,0,0,6,6H26a6,6,0,0,0,6-6V28.41a13.52,13.52,0,0,1-2-.77ZM15.5,6h5a.5.5,0,0,1,0,1h-5a.5.5,0,0,1,0-1Zm4.92,39.12a2.46,2.46,0,0,1-1.8,1.8,2.5,2.5,0,0,1-3-3,2.46,2.46,0,0,1,1.8-1.8A2.5,2.5,0,0,1,20.42,45.12Z" fill="currentColor"></path><path xmlns="http://www.w3.org/2000/svg" d="M36,3A12,12,0,0,0,24,15a19.45,19.45,0,0,0,.64,4.82l-1.59,4.87a1,1,0,0,0,.2,1,1,1,0,0,0,.94.32l5.18-1A11.86,11.86,0,0,0,36,27,12,12,0,0,0,36,3ZM33,16.5A1.5,1.5,0,1,1,34.5,15,1.5,1.5,0,0,1,33,16.5Zm6,0A1.5,1.5,0,1,1,40.5,15,1.5,1.5,0,0,1,39,16.5Z" fill="currentColor"></path></symbol></svg>